# xmcd CD database file
#
# Track frame offsets:
#	150
#	13440
#	26107
#	36685
#	50442
#	63817
#	78842
#	90495
#	106320
#	119475
#	132410
#	148932
#	162202
#	171575
#	183920
#	198227
#	208997
#	221435
#	232565
#	245407
#	260692
#	272802
#
# Disc length: 3837 seconds
#
# Revision: 0
# Processed by: cddbd v1.5.1PL0 Copyright (c) Steve Scherf et al.
# Submitted via: CDex 1.51
#
DISCID=480efb16
DTITLE=Paraquenopares No. 4 - Paraquenopares No. 4
DYEAR=1997
DGENRE=Salsa
TTITLE0=Hey Jude - Tony Vega
TTITLE1=Amor a prima vista -Michael Stuart
TTITLE2=No les molestas mas - Johnny Almendra 
TTITLE3=Si te vas -Guianko
TTITLE4=No me queda mas - Tito Nieves 
TTITLE5=La noche junto a ti - Ruben Sierra
TTITLE6=Deja te Roberto Te toque -Isaac Delgado
TTITLE7=Mirala cimo se  menea - Osca d'Leon
TTITLE8=Imaginando tu amor - Michael Stuart
TTITLE9=Casa de locos - Yorman
TTITLE10=Yo busco una mujer - Miles Pena 
TTITLE11=Quiesiera tenerte - Luiz Perico Ortiz
TTITLE12=Chica de playa - Yorman
TTITLE13=Que me hiciste tu - Tito Nieves 
TTITLE14=Tiempo  de estudiante - Johnny Rviera
TTITLE15=A sangre fria - Guianko
TTITLE16=No dejemos que muera el amor - Miles Pena
TTITLE17=No digas que no el gran - Combo
TTITLE18=Digen que soy - India
TTITLE19=Estoy enemorado - Jerry Galante 
TTITLE20=Voy a conquistar tu amor - Johnny Riviera
TTITLE21=Let it be - Tto Nieves 
EXTD=YEAR: 1997
EXTT0=
EXTT1=
EXTT2=
EXTT3=
EXTT4=
EXTT5=
EXTT6=
EXTT7=
EXTT8=
EXTT9=
EXTT10=
EXTT11=
EXTT12=
EXTT13=
EXTT14=
EXTT15=
EXTT16=
EXTT17=
EXTT18=
EXTT19=
EXTT20=
EXTT21=
PLAYORDER=
